<?xml version="1.0" encoding="UTF-8"?>
<svg xmlns="http://www.w3.org/2000/svg" xmlns:xlink="http://www.w3.org/1999/xlink" width="32px" height="12px" viewBox="0 0 31 12" version="1.1">
<g id="surface1">
<path style=" stroke:none;fill-rule:nonzero;fill:rgb(68.235296%,13.725491%,18.431373%);fill-opacity:1;" d="M 2.21875 0.644531 L 1.425781 5.699219 L 4.164062 5.699219 L 4.957031 0.644531 Z M 2.21875 0.644531 "/>
<path style=" stroke:none;fill-rule:nonzero;fill:rgb(68.235296%,13.725491%,18.431373%);fill-opacity:1;" d="M 1.390625 6.144531 L 0.757812 9.5625 L 9.082031 9.5625 C 9.160156 9.5625 9.179688 9.457031 9.109375 9.425781 C 8.480469 9.160156 7.175781 8.480469 6.492188 7.226562 L 3.882812 7.226562 C 3.882812 7.226562 4.109375 5.960938 4.109375 5.960938 L 1.605469 5.960938 C 1.5 5.960938 1.410156 6.039062 1.390625 6.144531 Z M 1.390625 6.144531 "/>
<path style=" stroke:none;fill-rule:nonzero;fill:rgb(68.235296%,13.725491%,18.431373%);fill-opacity:1;" d="M 8.679688 5.699219 C 8.804688 5.699219 8.90625 5.59375 8.902344 5.464844 C 8.898438 4.859375 9.058594 3.246094 10.914062 3 C 11.683594 2.898438 12.386719 2.910156 12.667969 2.921875 C 12.753906 2.925781 12.832031 2.886719 12.882812 2.820312 L 14.574219 0.644531 C 14.574219 0.644531 10.785156 0.417969 9.195312 0.984375 C 7.601562 1.550781 6.027344 2.910156 6.160156 5.445312 C 6.167969 5.585938 6.28125 5.699219 6.417969 5.699219 Z M 8.679688 5.699219 "/>
<path style=" stroke:none;fill-rule:nonzero;fill:rgb(68.235296%,13.725491%,18.431373%);fill-opacity:1;" d="M 6.269531 5.960938 C 6.269531 5.960938 6.871094 9.265625 10.914062 9.5625 C 13.167969 9.730469 17.589844 9.5625 17.589844 9.5625 L 17.589844 6.289062 C 17.589844 6.109375 17.445312 5.960938 17.269531 5.960938 L 14.871094 5.960938 L 14.871094 6.976562 C 14.871094 7.15625 14.726562 7.300781 14.550781 7.300781 L 11.363281 7.300781 C 11.359375 7.300781 11.355469 7.300781 11.351562 7.300781 C 11.253906 7.304688 9.972656 7.339844 9.082031 6.097656 C 9.019531 6.011719 8.925781 5.960938 8.820312 5.960938 Z M 6.269531 5.960938 "/>
<path style=" stroke:none;fill-rule:nonzero;fill:rgb(68.235296%,13.725491%,18.431373%);fill-opacity:1;" d="M 17.382812 5.699219 L 11.855469 5.699219 C 11.679688 5.699219 11.585938 5.488281 11.699219 5.351562 L 12.773438 4.058594 C 12.8125 4.007812 12.871094 3.980469 12.933594 3.980469 L 17.589844 3.980469 L 17.589844 5.488281 C 17.589844 5.605469 17.496094 5.699219 17.382812 5.699219 Z M 17.382812 5.699219 "/>
<path style=" stroke:none;fill-rule:nonzero;fill:rgb(55.29412%,77.64706%,25.098041%);fill-opacity:1;" d="M 13.449219 2.957031 L 20.714844 2.957031 L 20.714844 5.722656 L 23.398438 5.722656 L 23.398438 2.957031 L 25.972656 2.957031 C 26.078125 2.957031 26.179688 2.917969 26.257812 2.847656 L 28.816406 0.644531 L 15.402344 0.644531 C 15.265625 0.644531 15.136719 0.710938 15.054688 0.820312 Z M 13.449219 2.957031 "/>
<path style=" stroke:none;fill-rule:nonzero;fill:rgb(55.29412%,77.64706%,25.098041%);fill-opacity:1;" d="M 20.679688 9.5625 L 23.433594 9.5625 L 23.433594 6.183594 C 23.433594 6.058594 23.335938 5.960938 23.21875 5.960938 L 20.894531 5.960938 C 20.773438 5.960938 20.679688 6.0625 20.679688 6.183594 Z M 20.679688 9.5625 "/>
<path style=" stroke:none;fill-rule:nonzero;fill:rgb(55.29412%,77.64706%,25.098041%);fill-opacity:1;" d="M 30.445312 0.644531 L 27.761719 3.007812 L 27.761719 5.722656 L 30.445312 5.722656 Z M 30.445312 0.644531 "/>
<path style=" stroke:none;fill-rule:nonzero;fill:rgb(55.29412%,77.64706%,25.098041%);fill-opacity:1;" d="M 27.761719 6.1875 L 27.761719 9.5625 L 30.445312 9.5625 L 30.445312 6.1875 C 30.445312 6.0625 30.347656 5.960938 30.230469 5.960938 L 27.976562 5.960938 C 27.859375 5.960938 27.761719 6.0625 27.761719 6.1875 Z M 27.761719 6.1875 "/>
<path style=" stroke:none;fill-rule:nonzero;fill:rgb(68.235296%,13.725491%,18.431373%);fill-opacity:1;" d="M 0.726562 11.261719 L 1.125 11.261719 L 1.082031 11.503906 L 0.433594 11.503906 L 0.476562 11.257812 L 0.628906 10.386719 L 0.882812 10.386719 Z M 0.726562 11.261719 "/>
<path style=" stroke:none;fill-rule:nonzero;fill:rgb(68.235296%,13.725491%,18.431373%);fill-opacity:1;" d="M 1.945312 11.503906 L 1.914062 11.328125 L 1.492188 11.328125 L 1.402344 11.503906 L 1.128906 11.503906 L 1.691406 10.386719 L 2.019531 10.386719 L 2.203125 11.503906 Z M 1.613281 11.089844 L 1.875 11.089844 L 1.824219 10.667969 Z M 1.613281 11.089844 "/>
<path style=" stroke:none;fill-rule:nonzero;fill:rgb(68.235296%,13.725491%,18.431373%);fill-opacity:1;" d="M 3.898438 10.882812 L 3.882812 10.980469 C 3.851562 11.148438 3.78125 11.285156 3.664062 11.382812 C 3.546875 11.480469 3.402344 11.527344 3.238281 11.527344 C 3.074219 11.527344 2.9375 11.46875 2.84375 11.355469 C 2.75 11.238281 2.71875 11.097656 2.746094 10.929688 C 2.773438 10.765625 2.847656 10.632812 2.972656 10.523438 C 3.09375 10.417969 3.238281 10.363281 3.402344 10.363281 C 3.511719 10.363281 3.605469 10.390625 3.683594 10.4375 C 3.761719 10.480469 3.824219 10.546875 3.863281 10.632812 L 3.632812 10.757812 C 3.582031 10.660156 3.496094 10.613281 3.375 10.613281 C 3.277344 10.613281 3.195312 10.644531 3.125 10.707031 C 3.058594 10.765625 3.015625 10.847656 3 10.945312 C 2.980469 11.046875 2.996094 11.128906 3.042969 11.1875 C 3.09375 11.25 3.167969 11.28125 3.265625 11.28125 C 3.421875 11.28125 3.53125 11.222656 3.589844 11.105469 L 3.304688 11.105469 L 3.34375 10.882812 Z M 3.898438 10.882812 "/>
<path style=" stroke:none;fill-rule:nonzero;fill:rgb(68.235296%,13.725491%,18.431373%);fill-opacity:1;" d="M 4.773438 10.632812 L 4.335938 10.632812 L 4.304688 10.820312 L 4.699219 10.820312 L 4.65625 11.058594 L 4.261719 11.058594 L 4.226562 11.261719 L 4.667969 11.261719 L 4.625 11.503906 L 3.933594 11.503906 L 4.128906 10.386719 L 4.8125 10.386719 Z M 4.773438 10.632812 "/>
<path style=" stroke:none;fill-rule:nonzero;fill:rgb(68.235296%,13.725491%,18.431373%);fill-opacity:1;" d="M 4.769531 11.503906 L 4.96875 10.386719 L 5.15625 10.386719 L 5.472656 11.015625 L 5.578125 10.386719 L 5.832031 10.386719 L 5.636719 11.503906 L 5.449219 11.503906 L 5.132812 10.878906 L 5.019531 11.503906 Z M 4.769531 11.503906 "/>
<path style=" stroke:none;fill-rule:nonzero;fill:rgb(68.235296%,13.725491%,18.431373%);fill-opacity:1;" d="M 6.667969 10.632812 L 6.234375 10.632812 L 6.199219 10.820312 L 6.597656 10.820312 L 6.554688 11.058594 L 6.160156 11.058594 L 6.121094 11.261719 L 6.566406 11.261719 L 6.523438 11.503906 L 5.828125 11.503906 L 6.023438 10.386719 L 6.710938 10.386719 Z M 6.667969 10.632812 "/>
<path style=" stroke:none;fill-rule:nonzero;fill:rgb(68.235296%,13.725491%,18.431373%);fill-opacity:1;" d="M 7.617188 10.789062 C 7.601562 10.863281 7.574219 10.925781 7.527344 10.980469 C 7.484375 11.035156 7.425781 11.078125 7.359375 11.105469 L 7.519531 11.503906 L 7.261719 11.503906 L 7.121094 11.136719 L 6.984375 11.140625 L 6.917969 11.503906 L 6.667969 11.503906 L 6.863281 10.386719 L 7.289062 10.386719 C 7.394531 10.386719 7.480469 10.425781 7.546875 10.507812 C 7.609375 10.589844 7.636719 10.679688 7.617188 10.789062 Z M 7.308594 10.875 C 7.335938 10.847656 7.355469 10.8125 7.363281 10.773438 C 7.371094 10.730469 7.363281 10.695312 7.34375 10.667969 C 7.320312 10.640625 7.289062 10.628906 7.246094 10.628906 L 7.074219 10.628906 L 7.019531 10.917969 L 7.210938 10.917969 C 7.25 10.917969 7.28125 10.902344 7.308594 10.875 Z M 7.308594 10.875 "/>
<path style=" stroke:none;fill-rule:nonzero;fill:rgb(68.235296%,13.725491%,18.431373%);fill-opacity:1;" d="M 8.359375 11.503906 L 8.332031 11.328125 L 7.90625 11.328125 L 7.816406 11.503906 L 7.542969 11.503906 L 8.105469 10.386719 L 8.4375 10.386719 L 8.617188 11.503906 Z M 8.027344 11.089844 L 8.289062 11.089844 L 8.238281 10.667969 Z M 8.027344 11.089844 "/>
<path style=" stroke:none;fill-rule:nonzero;fill:rgb(68.235296%,13.725491%,18.431373%);fill-opacity:1;" d="M 9.007812 11.261719 L 9.402344 11.261719 L 9.359375 11.503906 L 8.710938 11.503906 L 8.757812 11.257812 L 8.90625 10.386719 L 9.160156 10.386719 Z M 9.007812 11.261719 "/>
<path style=" stroke:none;fill-rule:nonzero;fill:rgb(68.235296%,13.725491%,18.431373%);fill-opacity:1;" d="M 10.3125 10.632812 L 9.875 10.632812 L 9.84375 10.820312 L 10.238281 10.820312 L 10.195312 11.058594 L 9.800781 11.058594 L 9.765625 11.261719 L 10.210938 11.261719 L 10.164062 11.503906 L 9.472656 11.503906 L 9.667969 10.386719 L 10.351562 10.386719 Z M 10.3125 10.632812 "/>
<path style=" stroke:none;fill-rule:nonzero;fill:rgb(68.235296%,13.725491%,18.431373%);fill-opacity:1;" d="M 11.34375 10.386719 C 11.488281 10.386719 11.605469 10.445312 11.691406 10.558594 C 11.78125 10.671875 11.8125 10.804688 11.785156 10.964844 C 11.753906 11.121094 11.683594 11.25 11.566406 11.351562 C 11.445312 11.457031 11.308594 11.503906 11.148438 11.503906 L 10.703125 11.503906 L 10.898438 10.386719 Z M 11.539062 10.9375 C 11.554688 10.84375 11.542969 10.769531 11.496094 10.714844 C 11.453125 10.660156 11.386719 10.632812 11.296875 10.632812 L 11.109375 10.632812 L 11 11.261719 L 11.171875 11.261719 C 11.265625 11.261719 11.347656 11.230469 11.414062 11.171875 C 11.480469 11.113281 11.519531 11.035156 11.539062 10.9375 Z M 11.539062 10.9375 "/>
<path style=" stroke:none;fill-rule:nonzero;fill:rgb(68.235296%,13.725491%,18.431373%);fill-opacity:1;" d="M 12.667969 10.632812 L 12.234375 10.632812 L 12.199219 10.820312 L 12.597656 10.820312 L 12.554688 11.058594 L 12.160156 11.058594 L 12.125 11.261719 L 12.566406 11.261719 L 12.523438 11.503906 L 11.828125 11.503906 L 12.027344 10.386719 L 12.710938 10.386719 Z M 12.667969 10.632812 "/>
<path style=" stroke:none;fill-rule:nonzero;fill:rgb(68.235296%,13.725491%,18.431373%);fill-opacity:1;" d="M 13.070312 11.527344 C 12.953125 11.527344 12.859375 11.503906 12.785156 11.453125 C 12.714844 11.40625 12.667969 11.335938 12.648438 11.25 L 12.878906 11.132812 C 12.90625 11.230469 12.976562 11.28125 13.089844 11.28125 C 13.1875 11.28125 13.242188 11.25 13.253906 11.1875 C 13.257812 11.15625 13.25 11.128906 13.222656 11.113281 C 13.191406 11.09375 13.144531 11.070312 13.074219 11.046875 C 12.96875 11.011719 12.890625 10.96875 12.839844 10.914062 C 12.789062 10.855469 12.769531 10.78125 12.789062 10.679688 C 12.804688 10.578125 12.851562 10.5 12.929688 10.445312 C 13.007812 10.390625 13.097656 10.363281 13.199219 10.363281 C 13.292969 10.363281 13.371094 10.386719 13.4375 10.429688 C 13.503906 10.476562 13.550781 10.539062 13.582031 10.617188 L 13.359375 10.738281 C 13.320312 10.652344 13.261719 10.613281 13.179688 10.613281 C 13.140625 10.613281 13.109375 10.617188 13.085938 10.636719 C 13.066406 10.652344 13.050781 10.671875 13.046875 10.695312 C 13.039062 10.726562 13.050781 10.753906 13.078125 10.773438 C 13.101562 10.792969 13.148438 10.8125 13.214844 10.835938 C 13.238281 10.847656 13.253906 10.851562 13.265625 10.855469 C 13.28125 10.859375 13.296875 10.867188 13.3125 10.875 C 13.332031 10.882812 13.347656 10.890625 13.359375 10.898438 C 13.375 10.90625 13.386719 10.914062 13.402344 10.921875 C 13.417969 10.933594 13.433594 10.945312 13.445312 10.953125 C 13.453125 10.964844 13.464844 10.976562 13.476562 10.992188 C 13.484375 11.003906 13.496094 11.019531 13.5 11.035156 C 13.507812 11.050781 13.511719 11.066406 13.515625 11.082031 C 13.519531 11.101562 13.523438 11.121094 13.519531 11.140625 C 13.519531 11.164062 13.519531 11.1875 13.511719 11.210938 C 13.496094 11.3125 13.449219 11.390625 13.367188 11.445312 C 13.289062 11.5 13.1875 11.527344 13.070312 11.527344 Z M 13.070312 11.527344 "/>
<path style=" stroke:none;fill-rule:nonzero;fill:rgb(68.235296%,13.725491%,18.431373%);fill-opacity:1;" d="M 14.925781 10.386719 L 14.882812 10.632812 L 14.597656 10.632812 L 14.445312 11.503906 L 14.191406 11.503906 L 14.34375 10.632812 L 14.0625 10.632812 L 14.105469 10.386719 Z M 14.925781 10.386719 "/>
<path style=" stroke:none;fill-rule:nonzero;fill:rgb(68.235296%,13.725491%,18.431373%);fill-opacity:1;" d="M 15.792969 10.789062 C 15.777344 10.863281 15.75 10.925781 15.703125 10.980469 C 15.65625 11.035156 15.601562 11.078125 15.535156 11.105469 L 15.695312 11.503906 L 15.4375 11.503906 L 15.296875 11.136719 L 15.15625 11.140625 L 15.09375 11.503906 L 14.839844 11.503906 L 15.039062 10.386719 L 15.460938 10.386719 C 15.566406 10.386719 15.652344 10.425781 15.71875 10.507812 C 15.785156 10.589844 15.808594 10.679688 15.792969 10.789062 Z M 15.484375 10.875 C 15.511719 10.847656 15.53125 10.8125 15.539062 10.773438 C 15.546875 10.730469 15.539062 10.695312 15.515625 10.667969 C 15.496094 10.640625 15.460938 10.628906 15.421875 10.628906 L 15.246094 10.628906 L 15.195312 10.917969 L 15.386719 10.917969 C 15.425781 10.917969 15.457031 10.902344 15.484375 10.875 Z M 15.484375 10.875 "/>
<path style=" stroke:none;fill-rule:nonzero;fill:rgb(68.235296%,13.725491%,18.431373%);fill-opacity:1;" d="M 16.535156 11.503906 L 16.503906 11.328125 L 16.082031 11.328125 L 15.992188 11.503906 L 15.71875 11.503906 L 16.28125 10.386719 L 16.613281 10.386719 L 16.792969 11.503906 Z M 16.203125 11.089844 L 16.464844 11.089844 L 16.414062 10.667969 Z M 16.203125 11.089844 "/>
<path style=" stroke:none;fill-rule:nonzero;fill:rgb(68.235296%,13.725491%,18.431373%);fill-opacity:1;" d="M 17.058594 11.503906 L 16.910156 10.386719 L 17.171875 10.386719 L 17.257812 11.210938 L 17.628906 10.386719 L 17.917969 10.386719 L 17.382812 11.503906 Z M 17.058594 11.503906 "/>
<path style=" stroke:none;fill-rule:nonzero;fill:rgb(68.235296%,13.725491%,18.431373%);fill-opacity:1;" d="M 18.476562 11.503906 L 18.449219 11.328125 L 18.023438 11.328125 L 17.9375 11.503906 L 17.660156 11.503906 L 18.226562 10.386719 L 18.554688 10.386719 L 18.738281 11.503906 Z M 18.144531 11.089844 L 18.410156 11.089844 L 18.355469 10.667969 Z M 18.144531 11.089844 "/>
<path style=" stroke:none;fill-rule:nonzero;fill:rgb(68.235296%,13.725491%,18.431373%);fill-opacity:1;" d="M 19.222656 11.527344 C 19.089844 11.527344 18.988281 11.492188 18.917969 11.421875 C 18.84375 11.347656 18.820312 11.257812 18.839844 11.144531 L 18.972656 10.386719 L 19.222656 10.386719 L 19.09375 11.121094 C 19.078125 11.226562 19.125 11.28125 19.242188 11.28125 C 19.359375 11.28125 19.425781 11.226562 19.445312 11.121094 L 19.574219 10.386719 L 19.824219 10.386719 L 19.691406 11.144531 C 19.667969 11.269531 19.617188 11.367188 19.53125 11.429688 C 19.445312 11.496094 19.34375 11.527344 19.222656 11.527344 Z M 19.222656 11.527344 "/>
<path style=" stroke:none;fill-rule:nonzero;fill:rgb(68.235296%,13.725491%,18.431373%);fill-opacity:1;" d="M 20.835938 10.386719 L 20.425781 10.945312 L 20.660156 11.503906 L 20.382812 11.503906 L 20.25 11.183594 L 20.011719 11.503906 L 19.710938 11.503906 L 20.140625 10.921875 L 19.921875 10.386719 L 20.195312 10.386719 L 20.316406 10.683594 L 20.535156 10.386719 Z M 20.835938 10.386719 "/>
<path style=" stroke:none;fill-rule:nonzero;fill:rgb(68.235296%,13.725491%,18.431373%);fill-opacity:1;" d="M 21.359375 10.386719 L 21.609375 10.386719 L 21.414062 11.503906 L 21.164062 11.503906 Z M 21.359375 10.386719 "/>
<path style=" stroke:none;fill-rule:nonzero;fill:rgb(68.235296%,13.725491%,18.431373%);fill-opacity:1;" d="M 21.605469 11.503906 L 21.804688 10.386719 L 21.992188 10.386719 L 22.308594 11.015625 L 22.417969 10.386719 L 22.667969 10.386719 L 22.476562 11.503906 L 22.285156 11.503906 L 21.96875 10.878906 L 21.859375 11.503906 Z M 21.605469 11.503906 "/>
<path style=" stroke:none;fill-rule:nonzero;fill:rgb(68.235296%,13.725491%,18.431373%);fill-opacity:1;" d="M 23.304688 10.386719 C 23.449219 10.386719 23.566406 10.445312 23.652344 10.558594 C 23.742188 10.671875 23.773438 10.804688 23.742188 10.964844 C 23.714844 11.121094 23.644531 11.25 23.527344 11.351562 C 23.410156 11.457031 23.269531 11.503906 23.109375 11.503906 L 22.664062 11.503906 L 22.863281 10.386719 Z M 23.5 10.9375 C 23.515625 10.84375 23.503906 10.769531 23.457031 10.714844 C 23.414062 10.660156 23.347656 10.632812 23.257812 10.632812 L 23.070312 10.632812 L 22.960938 11.261719 L 23.136719 11.261719 C 23.226562 11.261719 23.308594 11.230469 23.375 11.171875 C 23.441406 11.113281 23.484375 11.035156 23.5 10.9375 Z M 23.5 10.9375 "/>
<path style=" stroke:none;fill-rule:nonzero;fill:rgb(68.235296%,13.725491%,18.431373%);fill-opacity:1;" d="M 24.214844 11.527344 C 24.082031 11.527344 23.980469 11.492188 23.90625 11.421875 C 23.835938 11.347656 23.808594 11.257812 23.828125 11.144531 L 23.964844 10.386719 L 24.214844 10.386719 L 24.085938 11.121094 C 24.070312 11.226562 24.117188 11.28125 24.234375 11.28125 C 24.351562 11.28125 24.417969 11.226562 24.4375 11.121094 L 24.5625 10.386719 L 24.816406 10.386719 L 24.679688 11.144531 C 24.660156 11.269531 24.605469 11.367188 24.523438 11.429688 C 24.4375 11.496094 24.335938 11.527344 24.214844 11.527344 Z M 24.214844 11.527344 "/>
<path style=" stroke:none;fill-rule:nonzero;fill:rgb(68.235296%,13.725491%,18.431373%);fill-opacity:1;" d="M 25.195312 11.527344 C 25.082031 11.527344 24.988281 11.503906 24.914062 11.453125 C 24.84375 11.40625 24.796875 11.335938 24.777344 11.25 L 25.007812 11.132812 C 25.035156 11.230469 25.105469 11.28125 25.21875 11.28125 C 25.316406 11.28125 25.371094 11.25 25.382812 11.1875 C 25.390625 11.15625 25.375 11.128906 25.347656 11.113281 C 25.320312 11.09375 25.273438 11.070312 25.203125 11.046875 C 25.097656 11.011719 25.019531 10.96875 24.96875 10.914062 C 24.917969 10.855469 24.902344 10.78125 24.917969 10.679688 C 24.933594 10.578125 24.980469 10.5 25.058594 10.445312 C 25.136719 10.390625 25.226562 10.363281 25.332031 10.363281 C 25.421875 10.363281 25.5 10.386719 25.566406 10.429688 C 25.632812 10.476562 25.679688 10.539062 25.710938 10.617188 L 25.488281 10.738281 C 25.449219 10.652344 25.390625 10.613281 25.308594 10.613281 C 25.269531 10.613281 25.238281 10.617188 25.214844 10.636719 C 25.195312 10.652344 25.179688 10.671875 25.175781 10.695312 C 25.167969 10.726562 25.179688 10.753906 25.207031 10.773438 C 25.234375 10.792969 25.277344 10.8125 25.347656 10.835938 C 25.363281 10.847656 25.382812 10.851562 25.394531 10.855469 C 25.40625 10.859375 25.425781 10.867188 25.441406 10.875 C 25.460938 10.882812 25.476562 10.890625 25.488281 10.898438 C 25.5 10.90625 25.515625 10.914062 25.53125 10.921875 C 25.546875 10.933594 25.5625 10.945312 25.574219 10.953125 C 25.582031 10.964844 25.59375 10.976562 25.605469 10.992188 C 25.617188 11.003906 25.625 11.019531 25.628906 11.035156 C 25.632812 11.050781 25.640625 11.066406 25.644531 11.082031 C 25.648438 11.101562 25.648438 11.121094 25.648438 11.140625 C 25.648438 11.164062 25.648438 11.1875 25.644531 11.210938 C 25.625 11.3125 25.574219 11.390625 25.496094 11.445312 C 25.417969 11.5 25.316406 11.527344 25.195312 11.527344 Z M 25.195312 11.527344 "/>
<path style=" stroke:none;fill-rule:nonzero;fill:rgb(68.235296%,13.725491%,18.431373%);fill-opacity:1;" d="M 26.617188 10.386719 L 26.578125 10.632812 L 26.292969 10.632812 L 26.140625 11.503906 L 25.886719 11.503906 L 26.039062 10.632812 L 25.753906 10.632812 L 25.800781 10.386719 Z M 26.617188 10.386719 "/>
<path style=" stroke:none;fill-rule:nonzero;fill:rgb(68.235296%,13.725491%,18.431373%);fill-opacity:1;" d="M 27.484375 10.789062 C 27.472656 10.863281 27.441406 10.925781 27.398438 10.980469 C 27.351562 11.035156 27.296875 11.078125 27.226562 11.105469 L 27.390625 11.503906 L 27.132812 11.503906 L 26.988281 11.136719 L 26.851562 11.140625 L 26.789062 11.503906 L 26.535156 11.503906 L 26.730469 10.386719 L 27.15625 10.386719 C 27.261719 10.386719 27.347656 10.425781 27.414062 10.507812 C 27.480469 10.589844 27.503906 10.679688 27.484375 10.789062 Z M 27.179688 10.875 C 27.207031 10.847656 27.226562 10.8125 27.234375 10.773438 C 27.238281 10.730469 27.234375 10.695312 27.210938 10.667969 C 27.191406 10.640625 27.160156 10.628906 27.117188 10.628906 L 26.941406 10.628906 L 26.890625 10.917969 L 27.082031 10.917969 C 27.117188 10.917969 27.152344 10.902344 27.179688 10.875 Z M 27.179688 10.875 "/>
<path style=" stroke:none;fill-rule:nonzero;fill:rgb(68.235296%,13.725491%,18.431373%);fill-opacity:1;" d="M 27.703125 10.386719 L 27.953125 10.386719 L 27.757812 11.503906 L 27.507812 11.503906 Z M 27.703125 10.386719 "/>
<path style=" stroke:none;fill-rule:nonzero;fill:rgb(68.235296%,13.725491%,18.431373%);fill-opacity:1;" d="M 28.789062 10.632812 L 28.355469 10.632812 L 28.320312 10.820312 L 28.71875 10.820312 L 28.675781 11.058594 L 28.28125 11.058594 L 28.246094 11.261719 L 28.6875 11.261719 L 28.644531 11.503906 L 27.949219 11.503906 L 28.144531 10.386719 L 28.832031 10.386719 Z M 28.789062 10.632812 "/>
<path style=" stroke:none;fill-rule:nonzero;fill:rgb(68.235296%,13.725491%,18.431373%);fill-opacity:1;" d="M 29.082031 11.261719 L 29.476562 11.261719 L 29.433594 11.503906 L 28.789062 11.503906 L 28.832031 11.257812 L 28.984375 10.386719 L 29.234375 10.386719 Z M 29.082031 11.261719 "/>
<path style=" stroke:none;fill-rule:nonzero;fill:rgb(68.235296%,13.725491%,18.431373%);fill-opacity:1;" d="M 29.933594 11.527344 C 29.816406 11.527344 29.722656 11.503906 29.648438 11.453125 C 29.578125 11.40625 29.53125 11.335938 29.511719 11.25 L 29.742188 11.132812 C 29.769531 11.230469 29.839844 11.28125 29.953125 11.28125 C 30.050781 11.28125 30.105469 11.25 30.117188 11.1875 C 30.125 11.15625 30.113281 11.128906 30.085938 11.113281 C 30.054688 11.09375 30.007812 11.070312 29.9375 11.046875 C 29.832031 11.011719 29.753906 10.96875 29.703125 10.914062 C 29.652344 10.855469 29.636719 10.78125 29.652344 10.679688 C 29.667969 10.578125 29.714844 10.5 29.792969 10.445312 C 29.871094 10.390625 29.964844 10.363281 30.066406 10.363281 C 30.15625 10.363281 30.234375 10.386719 30.300781 10.429688 C 30.367188 10.476562 30.414062 10.539062 30.445312 10.617188 L 30.222656 10.738281 C 30.183594 10.652344 30.125 10.613281 30.042969 10.613281 C 30.003906 10.613281 29.972656 10.617188 29.953125 10.636719 C 29.929688 10.652344 29.914062 10.671875 29.910156 10.695312 C 29.902344 10.726562 29.914062 10.753906 29.941406 10.773438 C 29.96875 10.792969 30.015625 10.8125 30.082031 10.835938 C 30.101562 10.847656 30.117188 10.851562 30.128906 10.855469 C 30.144531 10.859375 30.160156 10.867188 30.179688 10.875 C 30.195312 10.882812 30.210938 10.890625 30.222656 10.898438 C 30.234375 10.90625 30.25 10.914062 30.265625 10.921875 C 30.285156 10.933594 30.296875 10.945312 30.308594 10.953125 C 30.316406 10.964844 30.328125 10.976562 30.339844 10.992188 C 30.351562 11.003906 30.359375 11.019531 30.363281 11.035156 C 30.371094 11.050781 30.375 11.066406 30.378906 11.082031 C 30.382812 11.101562 30.386719 11.121094 30.386719 11.140625 C 30.382812 11.164062 30.382812 11.1875 30.378906 11.210938 C 30.359375 11.3125 30.3125 11.390625 30.230469 11.445312 C 30.152344 11.5 30.050781 11.527344 29.933594 11.527344 Z M 29.933594 11.527344 "/>
<path style=" stroke:none;fill-rule:nonzero;fill:rgb(100%,100%,100%);fill-opacity:1;" d="M 15.867188 1.125 C 15.921875 1.125 15.964844 1.167969 15.964844 1.222656 L 15.964844 2.367188 C 15.964844 2.421875 15.921875 2.464844 15.867188 2.464844 C 15.808594 2.464844 15.765625 2.421875 15.765625 2.367188 L 15.765625 1.222656 C 15.765625 1.167969 15.808594 1.125 15.867188 1.125 Z M 15.867188 1.125 "/>
<path style=" stroke:none;fill-rule:nonzero;fill:rgb(100%,100%,100%);fill-opacity:1;" d="M 18.242188 1.125 C 18.296875 1.125 18.339844 1.167969 18.339844 1.222656 L 18.339844 2.367188 C 18.339844 2.421875 18.296875 2.464844 18.242188 2.464844 C 18.1875 2.464844 18.140625 2.421875 18.140625 2.367188 L 18.140625 1.222656 C 18.140625 1.167969 18.1875 1.125 18.242188 1.125 Z M 18.242188 1.125 "/>
<path style=" stroke:none;fill-rule:nonzero;fill:rgb(100%,100%,100%);fill-opacity:1;" d="M 20.167969 1.125 C 20.222656 1.125 20.269531 1.167969 20.269531 1.222656 L 20.269531 2.367188 C 20.269531 2.421875 20.222656 2.464844 20.167969 2.464844 C 20.113281 2.464844 20.070312 2.421875 20.070312 2.367188 L 20.070312 1.222656 C 20.070312 1.167969 20.113281 1.125 20.167969 1.125 Z M 20.167969 1.125 "/>
<path style=" stroke:none;fill-rule:nonzero;fill:rgb(100%,100%,100%);fill-opacity:1;" d="M 22.125 1.125 C 22.179688 1.125 22.222656 1.167969 22.222656 1.222656 L 22.222656 2.367188 C 22.222656 2.421875 22.179688 2.464844 22.125 2.464844 C 22.070312 2.464844 22.023438 2.421875 22.023438 2.367188 L 22.023438 1.222656 C 22.023438 1.167969 22.070312 1.125 22.125 1.125 Z M 22.125 1.125 "/>
<path style=" stroke:none;fill-rule:nonzero;fill:rgb(100%,100%,100%);fill-opacity:1;" d="M 24.058594 1.125 C 24.113281 1.125 24.160156 1.167969 24.160156 1.222656 L 24.160156 2.367188 C 24.160156 2.421875 24.113281 2.464844 24.058594 2.464844 C 24.003906 2.464844 23.960938 2.421875 23.960938 2.367188 L 23.960938 1.222656 C 23.960938 1.167969 24.003906 1.125 24.058594 1.125 Z M 24.058594 1.125 "/>
<path style=" stroke:none;fill-rule:nonzero;fill:rgb(100%,100%,100%);fill-opacity:1;" d="M 26.023438 1.125 C 26.078125 1.125 26.121094 1.167969 26.121094 1.222656 L 26.121094 2.367188 C 26.121094 2.421875 26.078125 2.464844 26.023438 2.464844 C 25.96875 2.464844 25.921875 2.421875 25.921875 2.367188 L 25.921875 1.222656 C 25.921875 1.167969 25.96875 1.125 26.023438 1.125 Z M 26.023438 1.125 "/>
<path style=" stroke:none;fill-rule:nonzero;fill:rgb(100%,100%,100%);fill-opacity:1;" d="M 26.777344 1.433594 C 26.828125 1.433594 26.867188 1.476562 26.867188 1.527344 L 26.867188 2.0625 C 26.867188 2.113281 26.828125 2.15625 26.777344 2.15625 C 26.726562 2.15625 26.6875 2.113281 26.6875 2.0625 L 26.6875 1.527344 C 26.6875 1.476562 26.726562 1.433594 26.777344 1.433594 Z M 26.777344 1.433594 "/>
<path style=" stroke:none;fill-rule:nonzero;fill:rgb(100%,100%,100%);fill-opacity:1;" d="M 26.40625 1.433594 C 26.453125 1.433594 26.496094 1.476562 26.496094 1.527344 L 26.496094 2.0625 C 26.496094 2.113281 26.453125 2.15625 26.40625 2.15625 C 26.355469 2.15625 26.3125 2.113281 26.3125 2.0625 L 26.3125 1.527344 C 26.3125 1.476562 26.355469 1.433594 26.40625 1.433594 Z M 26.40625 1.433594 "/>
<path style=" stroke:none;fill-rule:nonzero;fill:rgb(100%,100%,100%);fill-opacity:1;" d="M 25.609375 1.457031 C 25.660156 1.457031 25.699219 1.496094 25.699219 1.546875 L 25.699219 2.085938 C 25.699219 2.136719 25.660156 2.175781 25.609375 2.175781 C 25.5625 2.175781 25.519531 2.136719 25.519531 2.085938 L 25.519531 1.546875 C 25.519531 1.496094 25.5625 1.457031 25.609375 1.457031 Z M 25.609375 1.457031 "/>
<path style=" stroke:none;fill-rule:nonzero;fill:rgb(100%,100%,100%);fill-opacity:1;" d="M 25.238281 1.457031 C 25.285156 1.457031 25.328125 1.496094 25.328125 1.546875 L 25.328125 2.085938 C 25.328125 2.136719 25.285156 2.175781 25.238281 2.175781 C 25.1875 2.175781 25.148438 2.136719 25.148438 2.085938 L 25.148438 1.546875 C 25.148438 1.496094 25.1875 1.457031 25.238281 1.457031 Z M 25.238281 1.457031 "/>
<path style=" stroke:none;fill-rule:nonzero;fill:rgb(100%,100%,100%);fill-opacity:1;" d="M 24.839844 1.457031 C 24.890625 1.457031 24.929688 1.496094 24.929688 1.546875 L 24.929688 2.085938 C 24.929688 2.136719 24.890625 2.175781 24.839844 2.175781 C 24.789062 2.175781 24.75 2.136719 24.75 2.085938 L 24.75 1.546875 C 24.75 1.496094 24.789062 1.457031 24.839844 1.457031 Z M 24.839844 1.457031 "/>
<path style=" stroke:none;fill-rule:nonzero;fill:rgb(100%,100%,100%);fill-opacity:1;" d="M 24.464844 1.457031 C 24.515625 1.457031 24.554688 1.496094 24.554688 1.546875 L 24.554688 2.085938 C 24.554688 2.136719 24.515625 2.175781 24.464844 2.175781 C 24.414062 2.175781 24.375 2.136719 24.375 2.085938 L 24.375 1.546875 C 24.375 1.496094 24.414062 1.457031 24.464844 1.457031 Z M 24.464844 1.457031 "/>
<path style=" stroke:none;fill-rule:nonzero;fill:rgb(100%,100%,100%);fill-opacity:1;" d="M 23.675781 1.457031 C 23.722656 1.457031 23.765625 1.496094 23.765625 1.546875 L 23.765625 2.085938 C 23.765625 2.136719 23.722656 2.175781 23.675781 2.175781 C 23.625 2.175781 23.585938 2.136719 23.585938 2.085938 L 23.585938 1.546875 C 23.585938 1.496094 23.625 1.457031 23.675781 1.457031 Z M 23.675781 1.457031 "/>
<path style=" stroke:none;fill-rule:nonzero;fill:rgb(100%,100%,100%);fill-opacity:1;" d="M 23.300781 1.457031 C 23.347656 1.457031 23.390625 1.496094 23.390625 1.546875 L 23.390625 2.085938 C 23.390625 2.136719 23.347656 2.175781 23.300781 2.175781 C 23.25 2.175781 23.210938 2.136719 23.210938 2.085938 L 23.210938 1.546875 C 23.210938 1.496094 23.25 1.457031 23.300781 1.457031 Z M 23.300781 1.457031 "/>
<path style=" stroke:none;fill-rule:nonzero;fill:rgb(100%,100%,100%);fill-opacity:1;" d="M 22.875 1.457031 C 22.925781 1.457031 22.964844 1.496094 22.964844 1.546875 L 22.964844 2.085938 C 22.964844 2.136719 22.925781 2.175781 22.875 2.175781 C 22.824219 2.175781 22.785156 2.136719 22.785156 2.085938 L 22.785156 1.546875 C 22.785156 1.496094 22.824219 1.457031 22.875 1.457031 Z M 22.875 1.457031 "/>
<path style=" stroke:none;fill-rule:nonzero;fill:rgb(100%,100%,100%);fill-opacity:1;" d="M 22.5 1.457031 C 22.546875 1.457031 22.589844 1.496094 22.589844 1.546875 L 22.589844 2.085938 C 22.589844 2.136719 22.546875 2.175781 22.5 2.175781 C 22.449219 2.175781 22.410156 2.136719 22.410156 2.085938 L 22.410156 1.546875 C 22.410156 1.496094 22.449219 1.457031 22.5 1.457031 Z M 22.5 1.457031 "/>
<path style=" stroke:none;fill-rule:nonzero;fill:rgb(100%,100%,100%);fill-opacity:1;" d="M 21.699219 1.457031 C 21.75 1.457031 21.789062 1.496094 21.789062 1.546875 L 21.789062 2.085938 C 21.789062 2.136719 21.75 2.175781 21.699219 2.175781 C 21.652344 2.175781 21.609375 2.136719 21.609375 2.085938 L 21.609375 1.546875 C 21.609375 1.496094 21.652344 1.457031 21.699219 1.457031 Z M 21.699219 1.457031 "/>
<path style=" stroke:none;fill-rule:nonzero;fill:rgb(100%,100%,100%);fill-opacity:1;" d="M 21.324219 1.457031 C 21.375 1.457031 21.414062 1.496094 21.414062 1.546875 L 21.414062 2.085938 C 21.414062 2.136719 21.375 2.175781 21.324219 2.175781 C 21.277344 2.175781 21.234375 2.136719 21.234375 2.085938 L 21.234375 1.546875 C 21.234375 1.496094 21.277344 1.457031 21.324219 1.457031 Z M 21.324219 1.457031 "/>
<path style=" stroke:none;fill-rule:nonzero;fill:rgb(100%,100%,100%);fill-opacity:1;" d="M 20.941406 1.457031 C 20.988281 1.457031 21.03125 1.496094 21.03125 1.546875 L 21.03125 2.085938 C 21.03125 2.136719 20.988281 2.175781 20.941406 2.175781 C 20.890625 2.175781 20.847656 2.136719 20.847656 2.085938 L 20.847656 1.546875 C 20.847656 1.496094 20.890625 1.457031 20.941406 1.457031 Z M 20.941406 1.457031 "/>
<path style=" stroke:none;fill-rule:nonzero;fill:rgb(100%,100%,100%);fill-opacity:1;" d="M 20.5625 1.457031 C 20.613281 1.457031 20.65625 1.496094 20.65625 1.546875 L 20.65625 2.085938 C 20.65625 2.136719 20.613281 2.175781 20.5625 2.175781 C 20.515625 2.175781 20.472656 2.136719 20.472656 2.085938 L 20.472656 1.546875 C 20.472656 1.496094 20.515625 1.457031 20.5625 1.457031 Z M 20.5625 1.457031 "/>
<path style=" stroke:none;fill-rule:nonzero;fill:rgb(100%,100%,100%);fill-opacity:1;" d="M 19.769531 1.457031 C 19.816406 1.457031 19.859375 1.496094 19.859375 1.546875 L 19.859375 2.085938 C 19.859375 2.136719 19.816406 2.175781 19.769531 2.175781 C 19.71875 2.175781 19.675781 2.136719 19.675781 2.085938 L 19.675781 1.546875 C 19.675781 1.496094 19.71875 1.457031 19.769531 1.457031 Z M 19.769531 1.457031 "/>
<path style=" stroke:none;fill-rule:nonzero;fill:rgb(100%,100%,100%);fill-opacity:1;" d="M 19.394531 1.457031 C 19.441406 1.457031 19.484375 1.496094 19.484375 1.546875 L 19.484375 2.085938 C 19.484375 2.136719 19.441406 2.175781 19.394531 2.175781 C 19.34375 2.175781 19.304688 2.136719 19.304688 2.085938 L 19.304688 1.546875 C 19.304688 1.496094 19.34375 1.457031 19.394531 1.457031 Z M 19.394531 1.457031 "/>
<path style=" stroke:none;fill-rule:nonzero;fill:rgb(100%,100%,100%);fill-opacity:1;" d="M 18.988281 1.457031 C 19.035156 1.457031 19.078125 1.496094 19.078125 1.546875 L 19.078125 2.085938 C 19.078125 2.136719 19.035156 2.175781 18.988281 2.175781 C 18.9375 2.175781 18.898438 2.136719 18.898438 2.085938 L 18.898438 1.546875 C 18.898438 1.496094 18.9375 1.457031 18.988281 1.457031 Z M 18.988281 1.457031 "/>
<path style=" stroke:none;fill-rule:nonzero;fill:rgb(100%,100%,100%);fill-opacity:1;" d="M 18.613281 1.457031 C 18.664062 1.457031 18.703125 1.496094 18.703125 1.546875 L 18.703125 2.085938 C 18.703125 2.136719 18.664062 2.175781 18.613281 2.175781 C 18.5625 2.175781 18.523438 2.136719 18.523438 2.085938 L 18.523438 1.546875 C 18.523438 1.496094 18.5625 1.457031 18.613281 1.457031 Z M 18.613281 1.457031 "/>
<path style=" stroke:none;fill-rule:nonzero;fill:rgb(100%,100%,100%);fill-opacity:1;" d="M 17.820312 1.457031 C 17.871094 1.457031 17.914062 1.496094 17.914062 1.546875 L 17.914062 2.085938 C 17.914062 2.136719 17.871094 2.175781 17.820312 2.175781 C 17.773438 2.175781 17.730469 2.136719 17.730469 2.085938 L 17.730469 1.546875 C 17.730469 1.496094 17.773438 1.457031 17.820312 1.457031 Z M 17.820312 1.457031 "/>
<path style=" stroke:none;fill-rule:nonzero;fill:rgb(100%,100%,100%);fill-opacity:1;" d="M 17.445312 1.457031 C 17.496094 1.457031 17.535156 1.496094 17.535156 1.546875 L 17.535156 2.085938 C 17.535156 2.136719 17.496094 2.175781 17.445312 2.175781 C 17.398438 2.175781 17.355469 2.136719 17.355469 2.085938 L 17.355469 1.546875 C 17.355469 1.496094 17.398438 1.457031 17.445312 1.457031 Z M 17.445312 1.457031 "/>
<path style=" stroke:none;fill-rule:nonzero;fill:rgb(100%,100%,100%);fill-opacity:1;" d="M 17.035156 1.457031 C 17.085938 1.457031 17.125 1.496094 17.125 1.546875 L 17.125 2.085938 C 17.125 2.136719 17.085938 2.175781 17.035156 2.175781 C 16.984375 2.175781 16.945312 2.136719 16.945312 2.085938 L 16.945312 1.546875 C 16.945312 1.496094 16.984375 1.457031 17.035156 1.457031 Z M 17.035156 1.457031 "/>
<path style=" stroke:none;fill-rule:nonzero;fill:rgb(100%,100%,100%);fill-opacity:1;" d="M 16.660156 1.457031 C 16.710938 1.457031 16.75 1.496094 16.75 1.546875 L 16.75 2.085938 C 16.75 2.136719 16.710938 2.175781 16.660156 2.175781 C 16.613281 2.175781 16.570312 2.136719 16.570312 2.085938 L 16.570312 1.546875 C 16.570312 1.496094 16.613281 1.457031 16.660156 1.457031 Z M 16.660156 1.457031 "/>
<path style=" stroke:none;fill-rule:nonzero;fill:rgb(100%,100%,100%);fill-opacity:1;" d="M 15.535156 1.433594 C 15.582031 1.433594 15.625 1.476562 15.625 1.527344 L 15.625 2.0625 C 15.625 2.113281 15.582031 2.15625 15.535156 2.15625 C 15.484375 2.15625 15.445312 2.113281 15.445312 2.0625 L 15.445312 1.527344 C 15.445312 1.476562 15.484375 1.433594 15.535156 1.433594 Z M 15.535156 1.433594 "/>
<path style=" stroke:none;fill-rule:nonzero;fill:rgb(100%,100%,100%);fill-opacity:1;" d="M 15.160156 1.433594 C 15.207031 1.433594 15.25 1.476562 15.25 1.527344 L 15.25 2.0625 C 15.25 2.113281 15.207031 2.15625 15.160156 2.15625 C 15.109375 2.15625 15.070312 2.113281 15.070312 2.0625 L 15.070312 1.527344 C 15.070312 1.476562 15.109375 1.433594 15.160156 1.433594 Z M 15.160156 1.433594 "/>
<path style=" stroke:none;fill-rule:nonzero;fill:rgb(100%,100%,100%);fill-opacity:1;" d="M 16.265625 1.457031 C 16.316406 1.457031 16.355469 1.496094 16.355469 1.546875 L 16.355469 2.085938 C 16.355469 2.136719 16.316406 2.175781 16.265625 2.175781 C 16.21875 2.175781 16.175781 2.136719 16.175781 2.085938 L 16.175781 1.546875 C 16.175781 1.496094 16.21875 1.457031 16.265625 1.457031 Z M 16.265625 1.457031 "/>
</g>
</svg>
